<svg width="280" height="53" viewBox="0 0 280 53" fill="none" xmlns="http://www.w3.org/2000/svg">
<g clip-path="url(#clip0_35_28)">
<g clip-path="url(#clip1_35_28)">
<g clip-path="url(#clip2_35_28)">
<g clip-path="url(#clip3_35_28)">
<g clip-path="url(#clip4_35_28)">
<g clip-path="url(#clip5_35_28)">
<g clip-path="url(#clip6_35_28)">
<path d="M77.5433 31.029C77.5433 32.9894 76.8495 34.5313 75.4618 35.6547C74.0741 36.7781 72.2788 37.3398 70.0761 37.3398C67.6311 37.3398 65.6046 36.8662 63.9967 35.919V32.3837C65.7368 33.6833 67.7523 34.3331 70.0431 34.3331C71.2546 34.3331 72.2128 34.0511 72.9176 33.4872C73.6225 32.9278 73.9749 32.1524 73.9749 31.1612C73.9749 30.5665 73.7657 30.0202 73.3472 29.5224C72.9286 29.029 72.4771 28.6545 71.9925 28.399C71.5079 28.1479 70.781 27.8021 69.8118 27.3615C69.2391 27.0972 68.8382 26.91 68.6091 26.7998C68.3756 26.6897 67.9946 26.4914 67.4659 26.2051C66.9373 25.9187 66.5474 25.6764 66.2963 25.4782C66.0408 25.28 65.7258 25.0046 65.3513 24.6522C64.9769 24.2998 64.7081 23.9473 64.5451 23.5949C64.3777 23.2425 64.2235 22.8283 64.0826 22.3526C63.9372 21.8812 63.8645 21.3702 63.8645 20.8195C63.8645 18.9251 64.5539 17.4273 65.9328 16.326C67.3073 15.2246 69.0849 14.6739 71.2656 14.6739C73.2701 14.6739 74.9772 15.0264 76.3869 15.7312V19.1014C74.9111 18.1762 73.237 17.7137 71.3647 17.7137C70.1532 17.7137 69.2017 17.9824 68.51 18.5198C67.814 19.0617 67.4659 19.7732 67.4659 20.6543C67.4659 21.5354 67.8073 22.2402 68.4902 22.7689C69.173 23.2975 70.2193 23.8702 71.629 24.487C72.5542 24.8835 73.2767 25.2249 73.7965 25.5112C74.3119 25.7976 74.9067 26.1985 75.5807 26.7139C76.2503 27.2338 76.7459 27.8505 77.0675 28.5642C77.3847 29.2823 77.5433 30.1039 77.5433 31.029ZM98.3919 14.8391V37.1085H94.9888V27.3615H84.9775V37.1085H81.5743V14.8391H84.9775V24.4209H94.9888V14.8391H98.3919ZM120.034 14.8391V28.584C120.034 31.4696 119.285 33.6613 117.787 35.1591C116.285 36.6569 114.212 37.4059 111.569 37.4059C108.974 37.4059 106.927 36.6724 105.43 35.2054C103.932 33.7428 103.183 31.6238 103.183 28.8483V14.8391H106.586V28.8153C106.586 30.7096 107.042 32.0907 107.954 32.9586C108.87 33.8309 110.075 34.267 111.569 34.267C114.943 34.267 116.63 32.3947 116.63 28.6501V14.8391H120.034ZM138.166 14.8391V17.6806H132.318V37.1085H128.915V17.6806H123.1V14.8391H138.166ZM154.687 14.8391V17.6806H148.838V37.1085H145.435V17.6806H139.62V14.8391H154.687ZM170.678 34.267V37.1085H157.825V14.8391H170.513V17.6806H161.229V24.5531H169.456V27.3946H161.229V34.267H170.678ZM181.112 17.6806H178.211V25.8086H181.278C182.687 25.8086 183.758 25.4386 184.489 24.6984C185.212 23.9627 185.573 22.9781 185.573 21.7446C185.573 19.0353 184.086 17.6806 181.112 17.6806ZM178.211 28.6501V37.1085H174.802V14.8391H181.02C183.571 14.8391 185.54 15.4603 186.928 16.7026C188.315 17.9493 189.009 19.641 189.009 21.7777C188.987 23.3416 188.591 24.6676 187.82 25.7557C187.049 26.8483 185.98 27.6369 184.615 28.1214L190.436 37.1085H186.366L181.145 28.6501H178.211ZM205.067 24.9826V27.8241H196.972V37.1085H193.569V14.8391H206.19V17.6806H196.972V24.9826H205.067ZM222.413 34.1018V37.1085H209.891V14.8391H213.294V34.1018H222.413ZM231.037 27.6919L230.673 28.8153H237.81L237.447 27.6919C236.61 25.0927 235.927 22.9385 235.398 21.2292C234.87 19.5243 234.55 18.4626 234.44 18.0441L234.275 17.4163C234.032 18.4516 232.953 21.8768 231.037 27.6919ZM229.748 31.6568L227.964 37.1085H224.363L232.061 14.8391H236.522L244.121 37.1085H240.486L238.735 31.6568H229.748ZM253.868 17.6806H250.96V25.8086H254.033C255.443 25.8086 256.511 25.4386 257.238 24.6984C257.965 23.9627 258.328 22.9781 258.328 21.7446C258.328 19.0353 256.842 17.6806 253.868 17.6806ZM250.96 28.6501V37.1085H247.557V14.8391H253.769C256.324 14.8391 258.295 15.4603 259.683 16.7026C261.071 17.9493 261.765 19.641 261.765 21.7777C261.743 23.3416 261.346 24.6676 260.575 25.7557C259.804 26.8483 258.736 27.6369 257.37 28.1214L263.185 37.1085H259.121L253.901 28.6501H250.96ZM279.17 34.267V37.1085H266.318V14.8391H279.005V17.6806H269.721V24.5531H277.948V27.3946H269.721V34.267H279.17Z" fill="#E8EDDF"/>
</g>
</g>
</g>
</g>
<g clip-path="url(#clip7_35_28)">
<g clip-path="url(#clip8_35_28)">
<path d="M0.819702 26.0397C0.819702 11.597 12.5278 -0.111084 26.9705 -0.111084C41.4132 -0.111084 53.1213 11.597 53.1219 26.0397C53.1219 40.4824 41.4138 52.1905 26.9705 52.1911C12.5278 52.1911 0.819702 40.483 0.819702 26.0397ZM26.9705 50.1408C40.2814 50.1408 51.0716 39.3506 51.0716 26.0397C51.0716 12.7289 40.2814 1.93863 26.9705 1.93917C13.6596 1.93917 2.86941 12.7294 2.86996 26.0397C2.86996 39.3506 13.6602 50.1408 26.9705 50.1408Z" fill="#F5CB5C"/>
<g clip-path="url(#clip9_35_28)">
<g clip-path="url(#clip10_35_28)">
<path d="M26.9707 13.7027C20.1441 13.7027 14.6335 19.2133 14.6335 26.0399C14.6335 32.8665 20.1441 38.3771 26.9707 38.3771C33.7973 38.3771 39.3079 32.8665 39.3079 26.0399C39.3079 19.2133 33.7973 13.7027 26.9707 13.7027ZM37.8274 26.4237L37.9097 26.506V26.6156C37.9097 26.8075 37.8822 26.972 37.8548 27.1639L37.8 27.7671L37.3888 27.3284C36.1276 25.9576 34.7568 24.6965 33.3312 23.5725C33.7698 27.4655 33.4134 31.386 32.262 35.5258L32.2071 35.6355L32.0975 35.6903C31.933 35.7726 31.7685 35.8548 31.604 35.9371L31.0831 36.1838L31.2476 35.6081C31.7685 33.826 32.1249 32.0166 32.3716 30.2071C29.1914 32.6197 25.5999 34.2921 21.4326 35.3613L21.323 35.3887L21.2133 35.3339C21.0488 35.2243 20.8843 35.142 20.7472 35.0323L20.2538 34.6759L20.8295 34.5389C22.639 34.1002 24.3936 33.497 26.0385 32.7842C22.3648 31.2215 19.1023 28.946 16.0865 25.8206L16.0043 25.7383V25.6287C16.0043 25.4367 16.0317 25.2448 16.0317 25.0803L16.0865 24.4772L16.4978 24.9158C17.7589 26.2318 19.1297 27.4381 20.5279 28.5347C20.0618 24.6143 20.3908 20.7212 21.5697 16.5814L21.5971 16.4717L21.7068 16.4169C21.8713 16.3346 22.0358 16.2524 22.2003 16.1701L22.7486 15.896L22.5841 16.4717C22.0906 18.1989 21.7068 19.981 21.4875 21.763C24.7226 19.3778 28.2866 17.7054 32.4539 16.6362L32.5635 16.6088L32.6732 16.6636C32.8377 16.7733 33.0022 16.8555 33.1393 16.9652L33.6602 17.3216L33.057 17.4587C31.275 17.8973 29.5478 18.4731 27.848 19.1859C30.7267 20.4196 33.4134 22.2017 36.018 24.6143C36.6211 25.19 37.2517 25.7932 37.8274 26.4237Z" fill="#FFC700"/>
</g>
</g>
</g>
</g>
</g>
</g>
</g>
<defs>
<clipPath id="clip0_35_28">
<rect width="280" height="52.08" fill="white"/>
</clipPath>
<clipPath id="clip1_35_28">
<rect width="278.361" height="52.302" fill="white" transform="translate(0.819702 -0.111084)"/>
</clipPath>
<clipPath id="clip2_35_28">
<rect width="278.361" height="52.302" fill="white" transform="translate(0.819702 -0.111084)"/>
</clipPath>
<clipPath id="clip3_35_28">
<rect width="215.326" height="22.7319" fill="white" transform="translate(63.8546 14.6739)"/>
</clipPath>
<clipPath id="clip4_35_28">
<rect width="215.326" height="22.7319" fill="white" transform="translate(63.8546 14.6739)"/>
</clipPath>
<clipPath id="clip5_35_28">
<rect width="215.326" height="22.7319" fill="white" transform="translate(63.8546 14.6739)"/>
</clipPath>
<clipPath id="clip6_35_28">
<rect width="215.326" height="22.7319" fill="white" transform="translate(63.8546 14.6739)"/>
</clipPath>
<clipPath id="clip7_35_28">
<rect width="52.302" height="52.302" fill="white" transform="translate(0.819702 -0.111084)"/>
</clipPath>
<clipPath id="clip8_35_28">
<rect width="52.302" height="52.302" fill="white" transform="translate(0.819702 -0.111084)"/>
</clipPath>
<clipPath id="clip9_35_28">
<rect width="24.6744" height="24.6744" fill="white" transform="translate(14.6335 13.7027)"/>
</clipPath>
<clipPath id="clip10_35_28">
<rect width="24.6744" height="24.6744" fill="white" transform="translate(14.6335 13.7027)"/>
</clipPath>
</defs>
</svg>
