<svg xmlns="http://www.w3.org/2000/svg" version="1.1" xmlns:xlink="http://www.w3.org/1999/xlink" xmlns:svgjs="http://svgjs.dev/svgjs" width="1000" height="186" viewBox="0 0 1000 186"><g transform="matrix(1,0,0,1,-0.6060606060606233,0.3967231871147874)"><svg viewBox="0 0 396 74" data-background-color="#ffffff" preserveAspectRatio="xMidYMid meet" height="186" width="1000" xmlns="http://www.w3.org/2000/svg" xmlns:xlink="http://www.w3.org/1999/xlink"><g id="tight-bounds" transform="matrix(1,0,0,1,0.2400000000000091,-0.15783610670158055)"><svg viewBox="0 0 395.52 74.31538416947187" height="74.31538416947187" width="395.52"><g><svg viewBox="0 0 511.30536518442295 96.07062763347619" height="74.31538416947187" width="395.52"><g transform="matrix(1,0,0,1,115.78536518442294,27.157781209710322)"><svg viewBox="0 0 395.52 41.75506521405555" height="41.75506521405555" width="395.52"><g id="textblocktransform"><svg viewBox="0 0 395.52 41.75506521405555" height="41.75506521405555" width="395.52" id="textblock"><g><svg viewBox="0 0 395.52 41.75506521405555" height="41.75506521405555" width="395.52"><g transform="matrix(1,0,0,1,0,0)"><svg width="395.52" viewBox="2.9000000953674316 -33.95000076293945 325.82000732421875 34.400001525878906" height="41.75506521405555" data-palette-color="#8d8d8d"><path d="M23.6-9.2L23.6-9.2Q23.6-4.75 20.45-2.2 17.3 0.35 12.3 0.35L12.3 0.35Q6.75 0.35 3.1-1.8L3.1-1.8 3.1-7.15Q7.05-4.2 12.25-4.2L12.25-4.2Q15-4.2 16.6-5.48 18.2-6.75 18.2-9L18.2-9Q18.2-10.35 17.25-11.48 16.3-12.6 15.2-13.18 14.1-13.75 11.9-14.75L11.9-14.75Q10.6-15.35 10.08-15.6 9.55-15.85 8.35-16.5 7.15-17.15 6.58-17.6 6-18.05 5.15-18.85 4.3-19.65 3.93-20.45 3.55-21.25 3.23-22.33 2.9-23.4 2.9-24.65L2.9-24.65Q2.9-28.95 6.03-31.45 9.15-33.95 14.1-33.95L14.1-33.95Q18.65-33.95 21.85-32.35L21.85-32.35 21.85-27.25Q18.5-29.35 14.25-29.35L14.25-29.35Q11.5-29.35 9.93-28.13 8.35-26.9 8.35-24.9 8.35-22.9 9.9-21.7 11.45-20.5 14.65-19.1L14.65-19.1Q16.75-18.2 17.93-17.55 19.1-16.9 20.63-15.73 22.15-14.55 22.88-12.93 23.6-11.3 23.6-9.2ZM55.15-33.7L55.15 0 50 0 50-14.75 34.85-14.75 34.85 0 29.7 0 29.7-33.7 34.85-33.7 34.85-19.2 50-19.2 50-33.7 55.15-33.7ZM87.9-33.7L87.9-12.9Q87.9-6.35 84.5-2.95 81.09 0.45 75.09 0.45L75.09 0.45Q69.2 0.45 65.8-2.88 62.4-6.2 62.4-12.5L62.4-12.5 62.4-33.7 67.55-33.7 67.55-12.55Q67.55-8.25 69.62-6.28 71.7-4.3 75.09-4.3L75.09-4.3Q82.75-4.3 82.75-12.8L82.75-12.8 82.75-33.7 87.9-33.7ZM115.34-33.7L115.34-29.4 106.49-29.4 106.49 0 101.34 0 101.34-29.4 92.54-29.4 92.54-33.7 115.34-33.7ZM140.34-33.7L140.34-29.4 131.49-29.4 131.49 0 126.34 0 126.34-29.4 117.54-29.4 117.54-33.7 140.34-33.7ZM164.54-4.3L164.54 0 145.09 0 145.09-33.7 164.29-33.7 164.29-29.4 150.24-29.4 150.24-19 162.69-19 162.69-14.7 150.24-14.7 150.24-4.3 164.54-4.3ZM180.33-29.4L180.33-29.4 175.94-29.4 175.94-17.1 180.58-17.1Q183.78-17.1 185.44-18.78 187.08-20.45 187.08-23.25L187.08-23.25Q187.08-29.4 180.33-29.4ZM175.94-12.8L175.94 0 170.78 0 170.78-33.7 180.19-33.7Q185.98-33.7 189.13-30.88 192.28-28.05 192.28-23.2L192.28-23.2Q192.23-19.65 190.48-17.18 188.73-14.7 185.63-13.6L185.63-13.6 194.44 0 188.28 0 180.38-12.8 175.94-12.8ZM216.58-18.35L216.58-14.05 204.33-14.05 204.33 0 199.18 0 199.18-33.7 218.28-33.7 218.28-29.4 204.33-29.4 204.33-18.35 216.58-18.35ZM242.83-4.55L242.83 0 223.88 0 223.88-33.7 229.03-33.7 229.03-4.55 242.83-4.55ZM255.88-14.25L255.88-14.25 255.33-12.55 266.13-12.55 265.58-14.25Q263.68-20.15 262.48-24.03 261.28-27.9 261.03-28.85L261.03-28.85 260.78-29.8Q260.23-27.45 255.88-14.25ZM253.93-8.25L251.23 0 245.78 0 257.43-33.7 264.18-33.7 275.68 0 270.18 0 267.53-8.25 253.93-8.25ZM290.43-29.4L290.43-29.4 286.03-29.4 286.03-17.1 290.68-17.1Q293.88-17.1 295.53-18.78 297.18-20.45 297.18-23.25L297.18-23.25Q297.18-29.4 290.43-29.4ZM286.03-12.8L286.03 0 280.88 0 280.88-33.7 290.28-33.7Q296.08-33.7 299.23-30.88 302.38-28.05 302.38-23.2L302.38-23.2Q302.33-19.65 300.58-17.18 298.83-14.7 295.73-13.6L295.73-13.6 304.53 0 298.38 0 290.48-12.8 286.03-12.8ZM328.72-4.3L328.72 0 309.27 0 309.27-33.7 328.47-33.7 328.47-29.4 314.42-29.4 314.42-19 326.87-19 326.87-14.7 314.42-14.7 314.42-4.3 328.72-4.3Z" opacity="1" transform="matrix(1,0,0,1,0,0)" fill="#ebebeb" class="undefined-text-0" data-fill-palette-color="primary" id="text-0"></path></svg></g></svg></g></svg></g></svg></g><g><svg viewBox="0 0 96.07062763347619 96.07062763347619" height="96.07062763347619" width="96.07062763347619"><g><svg></svg></g><g id="icon-0"><svg viewBox="0 0 96.07062763347619 96.07062763347619" height="96.07062763347619" width="96.07062763347619"><g><path d="M0 48.035c0-26.529 21.506-48.035 48.035-48.035 26.529 0 48.035 21.506 48.036 48.035 0 26.529-21.506 48.035-48.036 48.036-26.529 0-48.035-21.506-48.035-48.036zM48.035 92.305c24.45 0 44.27-19.82 44.27-44.27 0-24.45-19.82-44.27-44.27-44.269-24.45 0-44.27 19.82-44.269 44.269 0 24.45 19.82 44.27 44.269 44.27z" data-fill-palette-color="accent" fill="#ebebeb" stroke="transparent"></path></g><g transform="matrix(1,0,0,1,25.373792390844457,25.373792390844457)"><svg viewBox="0 0 45.32304285178728 45.32304285178728" height="45.32304285178728" width="45.32304285178728"><g><svg xmlns="http://www.w3.org/2000/svg" xmlns:xlink="http://www.w3.org/1999/xlink" version="1.1" x="0" y="0" viewBox="5 5 90 90" enable-background="new 0 0 100 100" xml:space="preserve" height="45.32304285178728" width="45.32304285178728" class="icon-s-0" data-fill-palette-color="accent" id="s-0"><path d="M50 5C25.1 5 5 25.1 5 50c0 24.9 20.1 45 45 45s45-20.1 45-45C95 25.1 74.9 5 50 5zM89.6 51.4l0.3 0.3 0 0.4c0 0.7-0.1 1.3-0.2 2l-0.2 2.2L88 54.7c-4.6-5-9.6-9.6-14.8-13.7 1.6 14.2 0.3 28.5-3.9 43.6L69.1 85l-0.4 0.2c-0.6 0.3-1.2 0.6-1.8 0.9L65 87l0.6-2.1c1.9-6.5 3.2-13.1 4.1-19.7C58.1 74 45 80.1 29.8 84l-0.4 0.1-0.4-0.2c-0.6-0.4-1.2-0.7-1.7-1.1l-1.8-1.3 2.1-0.5c6.6-1.6 13-3.8 19-6.4-13.4-5.7-25.3-14-36.3-25.4l-0.3-0.3 0-0.4c0-0.7 0.1-1.4 0.1-2l0.2-2.2 1.5 1.6c4.6 4.8 9.6 9.2 14.7 13.2-1.7-14.3-0.5-28.5 3.8-43.6l0.1-0.4 0.4-0.2c0.6-0.3 1.2-0.6 1.8-0.9l2-1-0.6 2.1c-1.8 6.3-3.2 12.8-4 19.3C41.8 25.7 54.8 19.6 70 15.7l0.4-0.1 0.4 0.2c0.6 0.4 1.2 0.7 1.7 1.1l1.9 1.3-2.2 0.5c-6.5 1.6-12.8 3.7-19 6.3 10.5 4.5 20.3 11 29.8 19.8C85.2 46.9 87.5 49.1 89.6 51.4z" fill="#ebebeb" data-fill-palette-color="accent"></path></svg></g></svg></g></svg></g></svg></g></svg></g><defs></defs></svg><rect width="395.52" height="74.31538416947187" fill="none" stroke="none" visibility="hidden"></rect></g></svg></g></svg>